<svg height="480pt" viewBox="0 0 480.49658 480" width="480pt" xmlns="http://www.w3.org/2000/svg"><path d="m287.382812 64.25c2.097657-.007812 4.109376-.832031 5.601563-2.304688l48.632813-48c2.933593-3.132812 2.871093-8.023437-.140626-11.082031-3.011718-3.058593-7.898437-3.195312-11.078124-.3125l-48.621094 48c-2.308594 2.277344-3.015625 5.722657-1.789063 8.726563 1.226563 3 4.144531 4.964844 7.386719 4.972656zm0 0"/><path d="m166.398438 477.902344c1.5 1.503906 3.535156 2.34375 5.65625 2.347656h186.511718c4.417969 0 8-3.582031 8-8v-40c-.039062-35.332031-28.667968-63.960938-64-64h-41.679687l-53.597657-65.945312 30.125-27.65625 240.488282-220.503907c3.257812-2.988281 3.476562-8.046875.488281-11.304687-2.984375-3.253906-8.046875-3.472656-11.300781-.488282l-234.875 215.394532-36.800782-36.304688c-3.1875-2.804687-8.011718-2.632812-10.988281.394532-2.976562 3.03125-3.070312 7.855468-.210937 10.996093l36.242187 35.746094-27.832031 25.519531-67.671875-20.304687-11.199219-34.878907 38.246094-37.792968 9.367188 9.238281c3.148437 3.105469 8.214843 3.070313 11.316406-.074219 3.105468-3.148437 3.070312-8.214844-.074219-11.316406l-9.210937-9.121094 72.875-71.945312c2.136718-1.984375 3.023437-4.976563 2.316406-7.804688-.707032-2.832031-2.902344-5.050781-5.722656-5.792968-2.824219-.742188-5.824219.109374-7.835938 2.222656l-116.785156 115.320312-2.109375-6.589844c-.855469-2.652343-3.03125-4.667968-5.738281-5.324218-2.710938-.652344-5.5625.152344-7.535157 2.121094l-67.871093 67.859374-22.640626 22.628907c-3.121093 3.125-3.121093 8.1875 0 11.3125zm-135.757813-181.015625 149.015625 149.015625c1.5 1.503906 3.535156 2.34375 5.65625 2.347656h62.6875c4.417969 0 8-3.582031 8-8 0-4.421875-3.582031-8-8-8h-59.367188l-146.679687-146.671875 52.949219-52.960937 16.050781 50.070312c.800781 2.511719 2.792969 4.46875 5.320313 5.226562l77.597656 23.292969 56.960937 70.089844c1.519531 1.867187 3.800781 2.953125 6.207031 2.953125h45.488282c26.496094.027344 47.96875 21.5 48 48h-38.527344c-4.417969 0-8 3.578125-8 8 0 4.417969 3.582031 8 8 8h38.558594v16h-175.199219l-156.039063-156.050781zm0 0"/><path d="m198.566406 344.25c0 4.417969-3.582031 8-8 8-4.417968 0-8-3.582031-8-8 0-4.421875 3.582032-8 8-8 4.417969 0 8 3.578125 8 8zm0 0"/><path d="m222.566406 376.25c0 4.417969-3.582031 8-8 8-4.417968 0-8-3.582031-8-8 0-4.421875 3.582032-8 8-8 4.417969 0 8 3.578125 8 8zm0 0"/><path d="m8 112.25c-4.417969 0-8 3.578125-8 8 0 4.417969 3.582031 8 8 8h152c4.417969 0 8-3.582031 8-8 0-4.421875-3.582031-8-8-8zm0 0"/><path d="m396.953125 367.640625c2.988281 1.234375 6.425781.550781 8.710937-1.738281l72-72c3.121094-3.121094 3.121094-8.1875 0-11.308594l-72-72c-2.289062-2.292969-5.730468-2.980469-8.722656-1.742188-2.992187 1.238282-4.945312 4.15625-4.941406 7.398438v24h-56c-4.417969 0-8 3.578125-8 8 0 4.417969 3.582031 8 8 8h64c4.417969 0 8-3.582031 8-8v-12.691406l52.695312 52.691406-52.695312 52.6875v-12.6875c0-4.421875-3.582031-8-8-8h-88c-4.417969 0-8 3.578125-8 8 0 4.417969 3.582031 8 8 8h80v24c0 3.238281 1.957031 6.15625 4.953125 7.390625zm0 0"/><path d="m232 64.25c0-4.421875-3.582031-8-8-8h-120c-4.417969 0-8 3.578125-8 8 0 4.417969 3.582031 8 8 8h120c4.417969 0 8-3.582031 8-8zm0 0"/><path d="m288 8.25c0-4.421875-3.582031-8-8-8h-96c-4.417969 0-8 3.578125-8 8 0 4.417969 3.582031 8 8 8h96c4.417969 0 8-3.582031 8-8zm0 0"/></svg>