<svg height="480pt" viewBox="0 -8 480.00367 480" width="480pt" xmlns="http://www.w3.org/2000/svg"><path d="m472 208h-112c-4.417969 0-8 3.582031-8 8v72c.035156 26.058594 15.851562 49.5 40 59.289062v57.816407l-38.144531 45.769531c-1.992188 2.382812-2.421875 5.703125-1.105469 8.519531 1.316406 2.8125 4.144531 4.609375 7.25 4.605469h112c3.105469.003906 5.933594-1.792969 7.25-4.605469 1.316406-2.816406.886719-6.136719-1.105469-8.519531l-38.144531-45.769531v-57.816407c24.148438-9.789062 39.964844-33.230468 40-59.289062v-72c0-4.417969-3.582031-8-8-8zm-8 16v40h-96v-40zm-38.144531 189.128906 29.066406 34.871094h-77.84375l29.066406-34.871094c1.199219-1.4375 1.855469-3.253906 1.855469-5.128906v-56.550781c5.308594.738281 10.691406.738281 16 0v56.550781c0 1.875.65625 3.691406 1.855469 5.128906zm38.144531-125.128906c0 26.511719-21.492188 48-48 48s-48-21.488281-48-48v-8h96zm0 0"/><path d="m328 288c4.417969 0 8-3.578125 8-8 0-4.417969-3.582031-8-8-8-22.089844 0-40 17.910156-40 40 0 22.09375 17.910156 40 40 40 4.417969 0 8-3.578125 8-8 0-4.417969-3.582031-8-8-8-13.253906 0-24-10.742188-24-24 0-13.253906 10.746094-24 24-24zm0 0"/><path d="m328 448h-64v-64h96c4.417969 0 8-3.578125 8-8 0-4.417969-3.582031-8-8-8h-96v-112h64c4.417969 0 8-3.578125 8-8 0-4.417969-3.582031-8-8-8h-64v-32c0-17.671875 14.328125-32 32-32h80c4.417969 0 8-3.578125 8-8 0-4.417969-3.582031-8-8-8h-16v-80c8.835938 0 16-7.160156 16-16v-48c0-8.835938-7.164062-16-16-16h-64c-8.835938 0-16 7.164062-16 16v48c0 8.839844 7.164062 16 16 16v80c-26.5.027344-47.972656 21.503906-48 48v248c0 4.421875 3.582031 8 8 8h72c4.417969 0 8-3.578125 8-8 0-4.417969-3.582031-8-8-8zm-32-432h64v48h-64zm16 64h32v80h-32zm0 0"/><path d="m80 336c4.417969 0 8-3.578125 8-8 0-4.417969-3.582031-8-8-8h-40c-4.417969 0-8 3.582031-8 8v56c0 4.421875 3.582031 8 8 8h40c4.417969 0 8-3.578125 8-8v-24c0-4.417969-3.582031-8-8-8s-8 3.582031-8 8v16h-24v-40zm0 0"/><path d="m120 328c-4.417969 0-8 3.582031-8 8v80c0 4.421875 3.582031 8 8 8s8-3.578125 8-8v-80c0-4.417969-3.582031-8-8-8zm0 0"/><path d="m152 360c-4.417969 0-8 3.582031-8 8v32c0 4.421875 3.582031 8 8 8s8-3.578125 8-8v-32c0-4.417969-3.582031-8-8-8zm0 0"/><path d="m184 344c-4.417969 0-8 3.582031-8 8v64c0 4.421875 3.582031 8 8 8s8-3.578125 8-8v-64c0-4.417969-3.582031-8-8-8zm0 0"/><path d="m75.679688 278.738281c2.367187 1.53125 5.367187 1.703125 7.890624.453125 2.527344-1.25 4.210938-3.738281 4.429688-6.550781.042969-.34375.066406-.691406.070312-1.039063.003907-3.800781-2.671874-7.078124-6.398437-7.839843-6.027344-1.222657-10.15625-6.808594-9.554687-12.929688.597656-6.121093 5.730468-10.800781 11.882812-10.832031 4.269531.007812 8.210938 2.308594 10.3125 6.027344 1.941406 3.320312 5.976562 4.789062 9.597656 3.496094 2.476563-.925782 5.089844-1.4375 7.730469-1.523438.269531 0 .535156.042969.75.042969 3.976563-.003907 7.347656-2.929688 7.914063-6.863281 1.199218-8.753907 8.03125-15.664063 16.769531-16.960938s17.285156 3.332031 20.972656 11.359375c1.164063 2.667969 3.679687 4.492187 6.578125 4.769531 2.894531.277344 5.710938-1.042968 7.355469-3.441406s1.859375-5.503906.554687-8.105469c-6.167968-13.332031-19.851562-21.554687-34.523437-20.738281-14.667969.8125-27.355469 10.5-32.011719 24.433594-.566406.097656-1.144531.210937-1.71875.328125-8.042969-8.585938-20.597656-11.230469-31.421875-6.617188s-17.605469 15.503907-16.976563 27.253907c.628907 11.75 8.535157 21.851562 19.789063 25.285156zm0 0"/><path d="m200 240c-4.179688-.007812-8.320312.808594-12.183594 2.402344-4.085937 1.683594-6.03125 6.363281-4.34375 10.449218 1.683594 4.082032 6.363282 6.027344 10.449219 4.34375 1.925781-.796874 3.992187-1.199218 6.078125-1.195312 8.835938 0 16 7.164062 16 16 0 8.839844-7.164062 16-16 16s-16-7.160156-16-16c0-4.417969-3.582031-8-8-8s-8 3.582031-8 8v40c0 4.421875-3.582031 8-8 8s-8-3.578125-8-8v-20.09375c0-3.03125-1.710938-5.800781-4.421875-7.15625s-5.953125-1.0625-8.378906.753906c-2.0625 1.59375-4.59375 2.464844-7.199219 2.472656-5.703125.003907-10.621094-4.011718-11.761719-9.597656-.953125-3.765625-4.351562-6.398437-8.238281-6.378906-4.417969 0-8 3.582031-8 8v16c0 4.421875-3.582031 8-8 8s-8-3.578125-8-8c0-4.417969-3.582031-8-8-8h-40c-22.082031.027344-39.9726562 17.921875-40 40v56c.0273438 22.082031 17.917969 39.976562 40 40h32c.027344 22.082031 17.917969 39.976562 40 40h80c22.082031-.023438 39.972656-17.917969 40-40v-152c0-17.671875-14.328125-32-32-32zm-8 208h-80c-13.253906 0-24-10.742188-24-24v-8c0-4.417969-3.582031-8-8-8h-40c-13.253906 0-24-10.742188-24-24v-56c0-13.253906 10.746094-24 24-24h33.472656c3.554688 10.128906 13.417969 16.648438 24.128906 15.953125 10.707032-.691406 19.648438-8.429687 21.871094-18.925781 5.105469 2.554687 10.871094 3.492187 16.527344 2.6875v8.285156c0 13.257812 10.746094 24 24 24s24-10.742188 24-24v-12.292969c9.898438 5.78125 22.15625 5.722657 32-.152343v124.445312c0 13.257812-10.746094 24-24 24zm0 0"/></svg>