<svg height="480pt" viewBox="0 0 480 480" width="480pt" xmlns="http://www.w3.org/2000/svg"><path d="m8 320h464c4.417969 0 8-3.582031 8-8s-3.582031-8-8-8h-28v-104c-.027344-22.082031-17.917969-39.972656-40-40h-8.886719c10.800781-10.503906 16.890625-24.933594 16.886719-40v-48c0-4.417969-3.582031-8-8-8h-20c-4.417969 0-8 3.582031-8 8s3.582031 8 8 8h12v40c0 22.089844-17.910156 40-40 40s-40-17.910156-40-40v-40h36c4.417969 0 8-3.582031 8-8s-3.582031-8-8-8h-44c-4.417969 0-8 3.582031-8 8v48c-.003906 15.066406 6.085938 29.496094 16.886719 40h-8.886719c-22.082031.027344-39.972656 17.917969-40 40v104h-80v-32h40c13.253906 0 24-10.746094 24-24v-112c0-13.253906-10.746094-24-24-24h-192c-13.253906 0-24 10.746094-24 24v112c0 13.253906 10.746094 24 24 24h40v32h-68c-4.417969 0-8 3.582031-8 8s3.582031 8 8 8zm404-16v-56h16v56zm16-104v32h-24c-4.417969 0-8 3.582031-8 8v64h-32v-88c-.011719-2.125-.855469-4.15625-2.351562-5.664062l-21.648438-21.648438v-12.6875h32v16c0 4.417969 3.582031 8 8 8s8-3.582031 8-8v-16h16c13.253906 0 24 10.746094 24 24zm-120-24h16v16c0 2.121094.84375 4.15625 2.34375 5.65625l21.65625 21.65625v84.6875h-32v-64c0-4.417969-3.582031-8-8-8h-24v-32c0-13.253906 10.746094-24 24-24zm-24 72h16v56h-16zm-248 8c-4.417969 0-8-3.582031-8-8v-112c0-4.417969 3.582031-8 8-8h192c4.417969 0 8 3.582031 8 8v112c0 4.417969-3.582031 8-8 8h-40v-40c-.027344-22.082031-17.917969-39.972656-40-40h-32c-22.082031.027344-39.972656 17.917969-40 40v40zm56 8v-48c0-13.253906 10.746094-24 24-24h32c13.253906 0 24 10.746094 24 24v88h-80zm0 0"/><path d="m472 368h-464c-4.417969 0-8 3.582031-8 8s3.582031 8 8 8h24v88c0 4.417969 3.582031 8 8 8s8-3.582031 8-8v-88h384v88c0 4.417969 3.582031 8 8 8s8-3.582031 8-8v-88h24c4.417969 0 8-3.582031 8-8s-3.582031-8-8-8zm0 0"/><path d="m276 136c4.417969 0 8-3.582031 8-8v-40c0-39.765625 32.234375-72 72-72s72 32.234375 72 72v40c0 4.417969 3.582031 8 8 8s8-3.582031 8-8v-40c0-48.601562-39.398438-88-88-88s-88 39.398438-88 88v40c0 4.417969 3.582031 8 8 8zm0 0"/><path d="m132 208c-15.464844 0-28 12.535156-28 28s12.535156 28 28 28c4.417969 0 8-3.582031 8-8s-3.582031-8-8-8c-6.628906 0-12-5.371094-12-12s5.371094-12 12-12 12 5.371094 12 12c0 4.417969 3.582031 8 8 8s8-3.582031 8-8c0-15.464844-12.535156-28-28-28zm0 0"/><path d="m384 408h-88c-4.417969 0-8 3.582031-8 8s3.582031 8 8 8h88c4.417969 0 8-3.582031 8-8s-3.582031-8-8-8zm0 0"/><path d="m176 432h-80c-4.417969 0-8 3.582031-8 8s3.582031 8 8 8h80c4.417969 0 8-3.582031 8-8s-3.582031-8-8-8zm0 0"/></svg>