<svg height="480pt" viewBox="0 0 480 480" width="480pt" xmlns="http://www.w3.org/2000/svg"><path d="m472 320c4.417969 0 8-3.582031 8-8v-48c-.027344-22.082031-17.917969-39.972656-40-40h-8v-16h16c8.835938 0 16-7.164062 16-16v-48c0-8.835938-7.164062-16-16-16h-208c-8.835938 0-16 7.164062-16 16v48c0 8.835938 7.164062 16 16 16h16v16h-8c-22.082031.027344-39.972656 17.917969-40 40v176c.027344 22.082031 17.917969 39.972656 40 40h192c22.082031-.027344 39.972656-17.917969 40-40v-56c0-4.417969-3.582031-8-8-8s-8 3.582031-8 8v24h-208c-4.417969 0-8 3.582031-8 8s3.582031 8 8 8h208v16c0 13.253906-10.746094 24-24 24h-192c-13.253906 0-24-10.746094-24-24v-144h208c4.417969 0 8-3.582031 8-8s-3.582031-8-8-8h-208v-16c0-13.253906 10.746094-24 24-24h192c13.253906 0 24 10.746094 24 24v48c0 4.417969 3.582031 8 8 8zm-232-176h16v8c0 4.417969 3.582031 8 8 8s8-3.582031 8-8v-8h24v8c0 4.417969 3.582031 8 8 8s8-3.582031 8-8v-8h24v8c0 4.417969 3.582031 8 8 8s8-3.582031 8-8v-8h24v8c0 4.417969 3.582031 8 8 8s8-3.582031 8-8v-8h24v8c0 4.417969 3.582031 8 8 8s8-3.582031 8-8v-8h16v48h-16v-8c0-4.417969-3.582031-8-8-8s-8 3.582031-8 8v8h-24v-8c0-4.417969-3.582031-8-8-8s-8 3.582031-8 8v8h-24v-8c0-4.417969-3.582031-8-8-8s-8 3.582031-8 8v8h-24v-8c0-4.417969-3.582031-8-8-8s-8 3.582031-8 8v8h-24v-8c0-4.417969-3.582031-8-8-8s-8 3.582031-8 8v8h-16zm32 80v-16h144v16zm0 0"/><path d="m259.71875 323.726562c-13.488281 13.5-15.558594 34.648438-4.953125 50.511719 10.609375 15.859375 30.945313 22.019531 48.574219 14.710938 17.625-7.3125 27.636718-26.054688 23.90625-44.769531-3.730469-18.714844-20.164063-32.1875-39.246094-32.179688-10.617188-.027344-20.800781 4.195312-28.28125 11.726562zm11.3125 11.3125c7.152344-7.226562 18.117188-9.089843 27.257812-4.632812l-31.890624 31.890625c-4.457032-9.140625-2.59375-20.101563 4.632812-27.257813zm33.9375 33.9375c-7.289062 6.929688-18.058594 8.726563-27.199219 4.542969l31.832031-31.800781c4.457032 9.140625 2.59375 20.105469-4.632812 27.257812zm0 0"/><path d="m424 328c4.417969 0 8-3.582031 8-8s-3.582031-8-8-8h-40c-4.417969 0-8 3.582031-8 8s3.582031 8 8 8zm0 0"/><path d="m360 352c0 4.417969 3.582031 8 8 8h16c4.417969 0 8-3.582031 8-8s-3.582031-8-8-8h-16c-4.417969 0-8 3.582031-8 8zm0 0"/><path d="m440 352c0-4.417969-3.582031-8-8-8h-16c-4.417969 0-8 3.582031-8 8s3.582031 8 8 8h16c4.417969 0 8-3.582031 8-8zm0 0"/><path d="m368 392h48c4.417969 0 8-3.582031 8-8s-3.582031-8-8-8h-48c-4.417969 0-8 3.582031-8 8s3.582031 8 8 8zm0 0"/><path d="m112 355.910156c4.417969 0 8-3.578125 8-8v-67.910156c0-4.417969-3.582031-8-8-8h-67.902344c-4.421875 0-8 3.582031-8 8v67.902344c0 4.421875 3.578125 8 8 8zm-59.902344-67.910156h51.902344v51.902344h-51.902344zm0 0"/><path d="m184 312h-35.902344c-4.421875 0-8 3.582031-8 8s3.578125 8 8 8h35.902344c4.417969 0 8-3.582031 8-8s-3.582031-8-8-8zm0 0"/><path d="m192 400c0-4.417969-3.582031-8-8-8h-144c-4.417969 0-8 3.582031-8 8s3.582031 8 8 8h144c4.417969 0 8-3.582031 8-8zm0 0"/><path d="m184 352h-40c-4.417969 0-8 3.582031-8 8s3.582031 8 8 8h40c4.417969 0 8-3.582031 8-8s-3.582031-8-8-8zm0 0"/><path d="m40 424c-4.417969 0-8 3.582031-8 8s3.582031 8 8 8h56c4.417969 0 8-3.582031 8-8s-3.582031-8-8-8zm0 0"/><path d="m144 424c-4.417969 0-8 3.582031-8 8s3.582031 8 8 8h32c4.417969 0 8-3.582031 8-8s-3.582031-8-8-8zm0 0"/><path d="m132.28125 51.726562c-13.496094-13.492187-34.644531-15.570312-50.511719-4.964843-15.863281 10.605469-22.027343 30.945312-14.71875 48.574219 7.304688 17.628906 26.050781 27.640624 44.765625 23.910156 18.71875-3.730469 32.191406-20.164063 32.183594-39.246094.03125-10.613281-4.191406-20.792969-11.71875-28.273438zm-45.25 11.3125c7.191406-7.195312 18.140625-9.078124 27.320312-4.695312l-32 32c-4.382812-9.179688-2.5-20.128906 4.695313-27.320312zm33.9375 33.9375c-7.261719 7.058594-18.117188 8.925782-27.320312 4.695313l32-32c4.382812 9.179687 2.5 20.128906-4.695313 27.320313zm0 0"/><path d="m179.71875 51.726562c-13.488281 13.5-15.558594 34.648438-4.953125 50.511719 10.609375 15.859375 30.945313 22.019531 48.574219 14.710938 17.625-7.3125 27.636718-26.054688 23.90625-44.769531-3.730469-18.714844-20.164063-32.1875-39.246094-32.179688-10.617188-.027344-20.800781 4.195312-28.28125 11.726562zm45.25 45.25c-7.261719 7.058594-18.117188 8.925782-27.320312 4.695313l32-32c4.382812 9.179687 2.5 20.128906-4.695313 27.320313zm-38.632812-6.578124c-4.382813-9.175782-2.503907-20.121094 4.6875-27.3125 7.191406-7.191407 18.132812-9.070313 27.3125-4.6875zm0 0"/><path d="m104 136c-19.082031-.003906-35.511719 13.472656-39.238281 32.1875-3.726563 18.71875 6.285156 37.457031 23.914062 44.765625 17.628907 7.304687 37.964844 1.140625 48.570313-14.726563 10.605468-15.863281 8.527344-37.011718-4.964844-50.507812-7.480469-7.527344-17.667969-11.75-28.28125-11.71875zm-16.96875 23.039062c7.191406-7.195312 18.140625-9.078124 27.320312-4.695312l-32 32c-4.382812-9.179688-2.5-20.128906 4.695313-27.320312zm33.9375 33.9375c-7.261719 7.058594-18.117188 8.925782-27.320312 4.695313l32-32c4.382812 9.179687 2.5 20.128906-4.695313 27.320313zm0 0"/><path d="m191.03125 147.726562c-3.125-3.121093-8.1875-3.121093-11.3125 0-15.613281 15.621094-15.613281 40.941407 0 56.5625 3.140625 3.03125 8.128906 2.988282 11.214844-.097656 3.085937-3.085937 3.128906-8.078125.097656-11.214844-9.367188-9.371093-9.367188-24.566406 0-33.9375 3.125-3.125 3.125-8.1875 0-11.3125zm0 0"/><path d="m184 237.664062h-168c-8.835938 0-16 7.164063-16 16v210.335938c0 8.835938 7.164062 16 16 16h168c4.417969 0 8-3.582031 8-8s-3.582031-8-8-8h-168v-210.335938h168c4.417969 0 8-3.582031 8-8 0-4.417968-3.582031-8-8-8zm0 0"/><path d="m30.632812 216c4.417969 0 8-3.582031 8-8v-184c0-4.417969 3.582032-8 8-8h211.902344c4.417969 0 8 3.582031 8 8v72c0 4.417969 3.582032 8 8 8 4.417969 0 8-3.582031 8-8v-72c0-13.253906-10.746094-24-24-24h-211.902344c-13.253906 0-24 10.746094-24 24v184c0 4.417969 3.582032 8 8 8zm0 0"/></svg>